# xmcd
#
# Track frame offsets: 
#        150
#        15132
#        37198
#        50977
#        65296
#        83894
#        94277
#        109915
#        128893
#
# Disc length: 1894 seconds
#
# Revision: 0
# Processed by: cddbd v1.5.2PL0 Copyright (c) Steve Scherf et al.
# Submitted via: ExactAudioCopy v1.3
#
DISCID=77076409
DTITLE=Kid Andersen, June Core, Netto Rockfeller - The Latin American 
DTITLE=Mojo Style of Netto Rockfeller
DYEAR=2018
DGENRE=Blues, Rock'n'Roll
TTITLE0=Rockfeller's Girl
TTITLE1=Half Past Midnight
TTITLE2=Try Me One More Time
TTITLE3=Only My Mama And My Pillow
TTITLE4=Nessa Estrada
TTITLE5=Troubles, Troubles
TTITLE6=Caramelo De Menta
TTITLE7=She's So Hard To Find
TTITLE8=Rock And Roll Tonight
EXTD=
EXTT0=
EXTT1=
EXTT2=
EXTT3=
EXTT4=
EXTT5=
EXTT6=
EXTT7=
EXTT8=
PLAYORDER=
